<mxfile host="Electron" modified="2023-04-08T01:30:16.615Z" agent="Mozilla/5.0 (Windows NT 10.0; Win64; x64) AppleWebKit/537.36 (KHTML, like Gecko) draw.io/21.1.2 Chrome/106.0.5249.199 Electron/21.4.3 Safari/537.36" etag="6BDVTWQJDYSzakc8PTQq" version="21.1.2" type="device" pages="2">
  <diagram name="Page-1" id="EyyGqFdInlsj5ZRaAPPk">
    <mxGraphModel dx="712" dy="820" grid="1" gridSize="10" guides="1" tooltips="1" connect="1" arrows="1" fold="1" page="1" pageScale="1" pageWidth="850" pageHeight="1100" math="0" shadow="0">
      <root>
        <mxCell id="0" />
        <mxCell id="1" parent="0" />
        <mxCell id="HKzSkE-kSnUCnQ_LDWvp-8" value="&lt;b&gt;SEARCHING&lt;br&gt;&lt;/b&gt;&lt;br&gt;&lt;br&gt;&lt;br&gt;&lt;br&gt;&lt;br&gt;&lt;br&gt;&lt;br&gt;&lt;br&gt;&lt;br&gt;&lt;br&gt;&lt;br&gt;&lt;br&gt;&lt;br&gt;&lt;br&gt;&lt;br&gt;&lt;br&gt;&lt;br&gt;&lt;br&gt;&lt;br&gt;&lt;br&gt;&lt;br&gt;&lt;br&gt;&lt;br&gt;&lt;br&gt;&lt;br&gt;&lt;br&gt;&lt;br&gt;&lt;br&gt;&lt;br&gt;&lt;br&gt;&lt;br&gt;&lt;br&gt;&lt;br&gt;&lt;br&gt;&lt;br&gt;&lt;br&gt;&lt;br&gt;&lt;br&gt;&lt;br&gt;&lt;br&gt;" style="rounded=1;whiteSpace=wrap;html=1;" parent="1" vertex="1">
          <mxGeometry x="130" y="140" width="370" height="650" as="geometry" />
        </mxCell>
        <mxCell id="HKzSkE-kSnUCnQ_LDWvp-9" value="&lt;b&gt;TRAVERSING&lt;br&gt;&lt;/b&gt;&lt;br&gt;&lt;br&gt;&lt;br&gt;&lt;br&gt;&lt;br&gt;&lt;br&gt;&lt;br&gt;&lt;br&gt;&lt;br&gt;&lt;br&gt;&lt;br&gt;&lt;br&gt;&lt;br&gt;&lt;br&gt;&lt;br&gt;&lt;br&gt;&lt;br&gt;&lt;br&gt;&lt;br&gt;&lt;br&gt;&lt;br&gt;&lt;br&gt;&lt;br&gt;&lt;br&gt;&lt;br&gt;&lt;br&gt;&lt;br&gt;" style="rounded=1;whiteSpace=wrap;html=1;" parent="1" vertex="1">
          <mxGeometry x="580" y="140" width="390" height="450" as="geometry" />
        </mxCell>
        <mxCell id="HKzSkE-kSnUCnQ_LDWvp-10" value="&lt;b&gt;AVOIDING&lt;br&gt;&lt;/b&gt;&lt;br&gt;&lt;br&gt;&lt;br&gt;&lt;br&gt;&lt;br&gt;&lt;br&gt;&lt;br&gt;&lt;br&gt;&lt;br&gt;&lt;br&gt;&lt;br&gt;&lt;br&gt;&lt;br&gt;&lt;br&gt;&lt;br&gt;&lt;br&gt;&lt;br&gt;&lt;br&gt;&lt;br&gt;&lt;br&gt;&lt;br&gt;&lt;br&gt;" style="rounded=1;whiteSpace=wrap;html=1;" parent="1" vertex="1">
          <mxGeometry x="580" y="660" width="380" height="370" as="geometry" />
        </mxCell>
        <mxCell id="HKzSkE-kSnUCnQ_LDWvp-19" style="edgeStyle=orthogonalEdgeStyle;rounded=0;orthogonalLoop=1;jettySize=auto;html=1;exitX=0.5;exitY=1;exitDx=0;exitDy=0;entryX=0.5;entryY=0;entryDx=0;entryDy=0;" parent="1" source="HKzSkE-kSnUCnQ_LDWvp-11" target="HKzSkE-kSnUCnQ_LDWvp-12" edge="1">
          <mxGeometry relative="1" as="geometry" />
        </mxCell>
        <mxCell id="HKzSkE-kSnUCnQ_LDWvp-20" value="NO STOP SIGN" style="edgeLabel;html=1;align=center;verticalAlign=middle;resizable=0;points=[];" parent="HKzSkE-kSnUCnQ_LDWvp-19" vertex="1" connectable="0">
          <mxGeometry x="-0.4898" y="-2" relative="1" as="geometry">
            <mxPoint x="2" y="1" as="offset" />
          </mxGeometry>
        </mxCell>
        <mxCell id="HKzSkE-kSnUCnQ_LDWvp-21" style="edgeStyle=orthogonalEdgeStyle;rounded=0;orthogonalLoop=1;jettySize=auto;html=1;exitX=1;exitY=0.5;exitDx=0;exitDy=0;entryX=0;entryY=0.321;entryDx=0;entryDy=0;entryPerimeter=0;" parent="1" source="HKzSkE-kSnUCnQ_LDWvp-11" target="HKzSkE-kSnUCnQ_LDWvp-9" edge="1">
          <mxGeometry relative="1" as="geometry" />
        </mxCell>
        <mxCell id="HKzSkE-kSnUCnQ_LDWvp-22" value="YES STOP SIGN" style="edgeLabel;html=1;align=center;verticalAlign=middle;resizable=0;points=[];" parent="HKzSkE-kSnUCnQ_LDWvp-21" vertex="1" connectable="0">
          <mxGeometry x="0.4094" y="2" relative="1" as="geometry">
            <mxPoint x="-110" y="28" as="offset" />
          </mxGeometry>
        </mxCell>
        <mxCell id="HKzSkE-kSnUCnQ_LDWvp-11" value="&lt;b&gt;A&lt;/b&gt;&lt;br&gt;Counter = 0&lt;br&gt;StopSign?" style="ellipse;whiteSpace=wrap;html=1;" parent="1" vertex="1">
          <mxGeometry x="150" y="270" width="120" height="80" as="geometry" />
        </mxCell>
        <mxCell id="HKzSkE-kSnUCnQ_LDWvp-26" style="edgeStyle=orthogonalEdgeStyle;rounded=0;orthogonalLoop=1;jettySize=auto;html=1;exitX=1;exitY=0;exitDx=0;exitDy=0;entryX=-0.008;entryY=0.367;entryDx=0;entryDy=0;entryPerimeter=0;" parent="1" source="HKzSkE-kSnUCnQ_LDWvp-12" target="HKzSkE-kSnUCnQ_LDWvp-9" edge="1">
          <mxGeometry relative="1" as="geometry">
            <Array as="points">
              <mxPoint x="530" y="437" />
              <mxPoint x="530" y="305" />
            </Array>
          </mxGeometry>
        </mxCell>
        <mxCell id="HKzSkE-kSnUCnQ_LDWvp-27" value="YES STOP SIGN" style="edgeLabel;html=1;align=center;verticalAlign=middle;resizable=0;points=[];" parent="HKzSkE-kSnUCnQ_LDWvp-26" vertex="1" connectable="0">
          <mxGeometry x="0.5924" y="-1" relative="1" as="geometry">
            <mxPoint x="-21" y="84" as="offset" />
          </mxGeometry>
        </mxCell>
        <mxCell id="HKzSkE-kSnUCnQ_LDWvp-29" style="edgeStyle=orthogonalEdgeStyle;rounded=0;orthogonalLoop=1;jettySize=auto;html=1;exitX=0;exitY=0.5;exitDx=0;exitDy=0;entryX=0.5;entryY=0;entryDx=0;entryDy=0;" parent="1" source="HKzSkE-kSnUCnQ_LDWvp-12" target="HKzSkE-kSnUCnQ_LDWvp-28" edge="1">
          <mxGeometry relative="1" as="geometry" />
        </mxCell>
        <mxCell id="HKzSkE-kSnUCnQ_LDWvp-30" value="NO STOP SIGN&lt;br&gt;COUNTER &amp;gt; = n" style="edgeLabel;html=1;align=center;verticalAlign=middle;resizable=0;points=[];" parent="HKzSkE-kSnUCnQ_LDWvp-29" vertex="1" connectable="0">
          <mxGeometry x="-0.152" y="-1" relative="1" as="geometry">
            <mxPoint x="-17" y="1" as="offset" />
          </mxGeometry>
        </mxCell>
        <mxCell id="HKzSkE-kSnUCnQ_LDWvp-12" value="&lt;b&gt;B&lt;br&gt;&lt;/b&gt;Counter++&lt;br&gt;TurnLeft&lt;br&gt;StopSign?" style="ellipse;whiteSpace=wrap;html=1;" parent="1" vertex="1">
          <mxGeometry x="320" y="425" width="120" height="80" as="geometry" />
        </mxCell>
        <mxCell id="HKzSkE-kSnUCnQ_LDWvp-13" value="" style="ellipse;html=1;shape=startState;fillColor=#000000;strokeColor=#ff0000;" parent="1" vertex="1">
          <mxGeometry x="160" y="50" width="30" height="30" as="geometry" />
        </mxCell>
        <mxCell id="HKzSkE-kSnUCnQ_LDWvp-14" value="" style="edgeStyle=orthogonalEdgeStyle;html=1;verticalAlign=bottom;endArrow=open;endSize=8;strokeColor=#ff0000;rounded=0;" parent="1" source="HKzSkE-kSnUCnQ_LDWvp-13" edge="1">
          <mxGeometry relative="1" as="geometry">
            <mxPoint x="175" y="140" as="targetPoint" />
          </mxGeometry>
        </mxCell>
        <mxCell id="HKzSkE-kSnUCnQ_LDWvp-15" value="" style="ellipse;html=1;shape=startState;fillColor=#000000;strokeColor=#ff0000;" parent="1" vertex="1">
          <mxGeometry x="180" y="180" width="30" height="30" as="geometry" />
        </mxCell>
        <mxCell id="HKzSkE-kSnUCnQ_LDWvp-16" value="" style="edgeStyle=orthogonalEdgeStyle;html=1;verticalAlign=bottom;endArrow=open;endSize=8;strokeColor=#ff0000;rounded=0;" parent="1" source="HKzSkE-kSnUCnQ_LDWvp-15" edge="1">
          <mxGeometry relative="1" as="geometry">
            <mxPoint x="195" y="270" as="targetPoint" />
          </mxGeometry>
        </mxCell>
        <mxCell id="HKzSkE-kSnUCnQ_LDWvp-17" value="" style="ellipse;html=1;shape=startState;fillColor=#000000;strokeColor=#ff0000;" parent="1" vertex="1">
          <mxGeometry x="630" y="170" width="30" height="30" as="geometry" />
        </mxCell>
        <mxCell id="HKzSkE-kSnUCnQ_LDWvp-18" value="" style="edgeStyle=orthogonalEdgeStyle;html=1;verticalAlign=bottom;endArrow=open;endSize=8;strokeColor=#ff0000;rounded=0;" parent="1" source="HKzSkE-kSnUCnQ_LDWvp-17" edge="1">
          <mxGeometry relative="1" as="geometry">
            <mxPoint x="645" y="240" as="targetPoint" />
          </mxGeometry>
        </mxCell>
        <mxCell id="HKzSkE-kSnUCnQ_LDWvp-23" style="edgeStyle=orthogonalEdgeStyle;rounded=0;orthogonalLoop=1;jettySize=auto;html=1;exitX=0.5;exitY=1;exitDx=0;exitDy=0;entryX=1;entryY=0.5;entryDx=0;entryDy=0;" parent="1" source="HKzSkE-kSnUCnQ_LDWvp-12" target="HKzSkE-kSnUCnQ_LDWvp-12" edge="1">
          <mxGeometry relative="1" as="geometry" />
        </mxCell>
        <mxCell id="HKzSkE-kSnUCnQ_LDWvp-24" value="NO STOP SIGN&lt;br&gt;COUNTER &amp;lt; n" style="edgeLabel;html=1;align=center;verticalAlign=middle;resizable=0;points=[];" parent="HKzSkE-kSnUCnQ_LDWvp-23" vertex="1" connectable="0">
          <mxGeometry x="0.0556" relative="1" as="geometry">
            <mxPoint as="offset" />
          </mxGeometry>
        </mxCell>
        <mxCell id="HKzSkE-kSnUCnQ_LDWvp-31" style="edgeStyle=orthogonalEdgeStyle;rounded=0;orthogonalLoop=1;jettySize=auto;html=1;exitX=1;exitY=1;exitDx=0;exitDy=0;entryX=0;entryY=1;entryDx=0;entryDy=0;" parent="1" source="HKzSkE-kSnUCnQ_LDWvp-28" target="HKzSkE-kSnUCnQ_LDWvp-12" edge="1">
          <mxGeometry relative="1" as="geometry">
            <Array as="points">
              <mxPoint x="338" y="598" />
            </Array>
          </mxGeometry>
        </mxCell>
        <mxCell id="HKzSkE-kSnUCnQ_LDWvp-32" value="YES OBSTACLE" style="edgeLabel;html=1;align=center;verticalAlign=middle;resizable=0;points=[];" parent="HKzSkE-kSnUCnQ_LDWvp-31" vertex="1" connectable="0">
          <mxGeometry x="-0.2371" relative="1" as="geometry">
            <mxPoint x="32" as="offset" />
          </mxGeometry>
        </mxCell>
        <mxCell id="HKzSkE-kSnUCnQ_LDWvp-35" style="edgeStyle=orthogonalEdgeStyle;rounded=0;orthogonalLoop=1;jettySize=auto;html=1;exitX=0.5;exitY=1;exitDx=0;exitDy=0;entryX=0.5;entryY=0;entryDx=0;entryDy=0;" parent="1" source="HKzSkE-kSnUCnQ_LDWvp-28" target="HKzSkE-kSnUCnQ_LDWvp-34" edge="1">
          <mxGeometry relative="1" as="geometry" />
        </mxCell>
        <mxCell id="HKzSkE-kSnUCnQ_LDWvp-28" value="&lt;b&gt;C&lt;br&gt;-&lt;br&gt;&lt;/b&gt;Obstacle?" style="ellipse;whiteSpace=wrap;html=1;" parent="1" vertex="1">
          <mxGeometry x="200" y="530" width="120" height="80" as="geometry" />
        </mxCell>
        <mxCell id="HKzSkE-kSnUCnQ_LDWvp-33" style="edgeStyle=orthogonalEdgeStyle;rounded=0;orthogonalLoop=1;jettySize=auto;html=1;exitX=0.5;exitY=1;exitDx=0;exitDy=0;" parent="1" source="HKzSkE-kSnUCnQ_LDWvp-28" target="HKzSkE-kSnUCnQ_LDWvp-28" edge="1">
          <mxGeometry relative="1" as="geometry" />
        </mxCell>
        <mxCell id="HKzSkE-kSnUCnQ_LDWvp-36" style="edgeStyle=orthogonalEdgeStyle;rounded=0;orthogonalLoop=1;jettySize=auto;html=1;exitX=0;exitY=0.5;exitDx=0;exitDy=0;entryX=0;entryY=1;entryDx=0;entryDy=0;" parent="1" source="HKzSkE-kSnUCnQ_LDWvp-34" target="HKzSkE-kSnUCnQ_LDWvp-11" edge="1">
          <mxGeometry relative="1" as="geometry" />
        </mxCell>
        <mxCell id="HKzSkE-kSnUCnQ_LDWvp-34" value="&lt;b&gt;D&lt;/b&gt;&lt;br&gt;Drive Forwards&lt;br&gt;-" style="ellipse;whiteSpace=wrap;html=1;" parent="1" vertex="1">
          <mxGeometry x="200" y="640" width="120" height="80" as="geometry" />
        </mxCell>
        <mxCell id="HKzSkE-kSnUCnQ_LDWvp-39" style="edgeStyle=orthogonalEdgeStyle;rounded=0;orthogonalLoop=1;jettySize=auto;html=1;exitX=0;exitY=0;exitDx=0;exitDy=0;entryX=0.5;entryY=0;entryDx=0;entryDy=0;" parent="1" source="HKzSkE-kSnUCnQ_LDWvp-37" target="HKzSkE-kSnUCnQ_LDWvp-8" edge="1">
          <mxGeometry relative="1" as="geometry" />
        </mxCell>
        <mxCell id="HKzSkE-kSnUCnQ_LDWvp-40" value="NO OBSTACLE&lt;br&gt;NO STOP SIGN" style="edgeLabel;html=1;align=center;verticalAlign=middle;resizable=0;points=[];" parent="HKzSkE-kSnUCnQ_LDWvp-39" vertex="1" connectable="0">
          <mxGeometry x="0.2707" relative="1" as="geometry">
            <mxPoint as="offset" />
          </mxGeometry>
        </mxCell>
        <mxCell id="HKzSkE-kSnUCnQ_LDWvp-41" style="edgeStyle=orthogonalEdgeStyle;rounded=0;orthogonalLoop=1;jettySize=auto;html=1;exitX=1;exitY=0.5;exitDx=0;exitDy=0;entryX=0;entryY=0.5;entryDx=0;entryDy=0;" parent="1" source="HKzSkE-kSnUCnQ_LDWvp-37" target="HKzSkE-kSnUCnQ_LDWvp-38" edge="1">
          <mxGeometry relative="1" as="geometry" />
        </mxCell>
        <mxCell id="HKzSkE-kSnUCnQ_LDWvp-42" value="NO OBSTACLE&lt;br&gt;YES STOP SIGN" style="edgeLabel;html=1;align=center;verticalAlign=middle;resizable=0;points=[];" parent="HKzSkE-kSnUCnQ_LDWvp-41" vertex="1" connectable="0">
          <mxGeometry x="-0.2222" relative="1" as="geometry">
            <mxPoint as="offset" />
          </mxGeometry>
        </mxCell>
        <mxCell id="HKzSkE-kSnUCnQ_LDWvp-44" style="edgeStyle=orthogonalEdgeStyle;rounded=0;orthogonalLoop=1;jettySize=auto;html=1;exitX=0.5;exitY=1;exitDx=0;exitDy=0;" parent="1" source="HKzSkE-kSnUCnQ_LDWvp-37" edge="1">
          <mxGeometry relative="1" as="geometry">
            <mxPoint x="650" y="660" as="targetPoint" />
            <Array as="points">
              <mxPoint x="650" y="660" />
            </Array>
          </mxGeometry>
        </mxCell>
        <mxCell id="HKzSkE-kSnUCnQ_LDWvp-45" value="YES OBSTACLE&lt;br&gt;NO STOP SIGN" style="edgeLabel;html=1;align=center;verticalAlign=middle;resizable=0;points=[];" parent="HKzSkE-kSnUCnQ_LDWvp-44" vertex="1" connectable="0">
          <mxGeometry x="0.2934" y="2" relative="1" as="geometry">
            <mxPoint y="1" as="offset" />
          </mxGeometry>
        </mxCell>
        <mxCell id="HKzSkE-kSnUCnQ_LDWvp-47" style="edgeStyle=orthogonalEdgeStyle;rounded=0;orthogonalLoop=1;jettySize=auto;html=1;exitX=1;exitY=1;exitDx=0;exitDy=0;entryX=0;entryY=0;entryDx=0;entryDy=0;" parent="1" source="HKzSkE-kSnUCnQ_LDWvp-37" target="HKzSkE-kSnUCnQ_LDWvp-46" edge="1">
          <mxGeometry relative="1" as="geometry">
            <Array as="points">
              <mxPoint x="692" y="380" />
              <mxPoint x="812" y="380" />
            </Array>
          </mxGeometry>
        </mxCell>
        <mxCell id="HKzSkE-kSnUCnQ_LDWvp-48" value="YES OBSTACLE&lt;br&gt;YES STOP SIGN" style="edgeLabel;html=1;align=center;verticalAlign=middle;resizable=0;points=[];" parent="HKzSkE-kSnUCnQ_LDWvp-47" vertex="1" connectable="0">
          <mxGeometry x="0.2987" y="-1" relative="1" as="geometry">
            <mxPoint x="-12" as="offset" />
          </mxGeometry>
        </mxCell>
        <mxCell id="HKzSkE-kSnUCnQ_LDWvp-37" value="&lt;b&gt;E&lt;/b&gt;&lt;br&gt;-&lt;br&gt;Obstacle?&lt;br&gt;StopSign?" style="ellipse;whiteSpace=wrap;html=1;" parent="1" vertex="1">
          <mxGeometry x="590" y="240" width="120" height="80" as="geometry" />
        </mxCell>
        <mxCell id="HKzSkE-kSnUCnQ_LDWvp-43" style="edgeStyle=orthogonalEdgeStyle;rounded=0;orthogonalLoop=1;jettySize=auto;html=1;exitX=0;exitY=0;exitDx=0;exitDy=0;entryX=1;entryY=0;entryDx=0;entryDy=0;" parent="1" source="HKzSkE-kSnUCnQ_LDWvp-38" target="HKzSkE-kSnUCnQ_LDWvp-37" edge="1">
          <mxGeometry relative="1" as="geometry" />
        </mxCell>
        <mxCell id="HKzSkE-kSnUCnQ_LDWvp-38" value="&lt;b&gt;F&lt;/b&gt;&lt;br&gt;Drive Forwards&lt;br&gt;-" style="ellipse;whiteSpace=wrap;html=1;" parent="1" vertex="1">
          <mxGeometry x="850" y="240" width="120" height="80" as="geometry" />
        </mxCell>
        <mxCell id="HKzSkE-kSnUCnQ_LDWvp-49" style="edgeStyle=orthogonalEdgeStyle;rounded=0;orthogonalLoop=1;jettySize=auto;html=1;exitX=0;exitY=1;exitDx=0;exitDy=0;entryX=0.5;entryY=0;entryDx=0;entryDy=0;" parent="1" source="HKzSkE-kSnUCnQ_LDWvp-46" target="HKzSkE-kSnUCnQ_LDWvp-10" edge="1">
          <mxGeometry relative="1" as="geometry" />
        </mxCell>
        <mxCell id="HKzSkE-kSnUCnQ_LDWvp-50" value="NO" style="edgeLabel;html=1;align=center;verticalAlign=middle;resizable=0;points=[];" parent="HKzSkE-kSnUCnQ_LDWvp-49" vertex="1" connectable="0">
          <mxGeometry x="-0.1338" y="-3" relative="1" as="geometry">
            <mxPoint as="offset" />
          </mxGeometry>
        </mxCell>
        <mxCell id="HKzSkE-kSnUCnQ_LDWvp-53" style="edgeStyle=orthogonalEdgeStyle;rounded=0;orthogonalLoop=1;jettySize=auto;html=1;exitX=0.5;exitY=1;exitDx=0;exitDy=0;entryX=0.5;entryY=0;entryDx=0;entryDy=0;" parent="1" source="HKzSkE-kSnUCnQ_LDWvp-46" target="HKzSkE-kSnUCnQ_LDWvp-52" edge="1">
          <mxGeometry relative="1" as="geometry" />
        </mxCell>
        <mxCell id="HKzSkE-kSnUCnQ_LDWvp-54" value="YES" style="edgeLabel;html=1;align=center;verticalAlign=middle;resizable=0;points=[];" parent="HKzSkE-kSnUCnQ_LDWvp-53" vertex="1" connectable="0">
          <mxGeometry x="0.219" y="2" relative="1" as="geometry">
            <mxPoint as="offset" />
          </mxGeometry>
        </mxCell>
        <mxCell id="HKzSkE-kSnUCnQ_LDWvp-46" value="&lt;b&gt;G&lt;/b&gt;&lt;br&gt;-&lt;br&gt;IsObstacleStopSign?" style="ellipse;whiteSpace=wrap;html=1;" parent="1" vertex="1">
          <mxGeometry x="790" y="410" width="150" height="80" as="geometry" />
        </mxCell>
        <mxCell id="HKzSkE-kSnUCnQ_LDWvp-51" style="edgeStyle=orthogonalEdgeStyle;rounded=0;orthogonalLoop=1;jettySize=auto;html=1;exitX=0.5;exitY=1;exitDx=0;exitDy=0;" parent="1" source="HKzSkE-kSnUCnQ_LDWvp-46" target="HKzSkE-kSnUCnQ_LDWvp-46" edge="1">
          <mxGeometry relative="1" as="geometry" />
        </mxCell>
        <mxCell id="HKzSkE-kSnUCnQ_LDWvp-52" value="" style="ellipse;html=1;shape=endState;fillColor=#000000;strokeColor=#ff0000;" parent="1" vertex="1">
          <mxGeometry x="895" y="550" width="30" height="30" as="geometry" />
        </mxCell>
        <mxCell id="HKzSkE-kSnUCnQ_LDWvp-59" style="edgeStyle=orthogonalEdgeStyle;rounded=0;orthogonalLoop=1;jettySize=auto;html=1;exitX=0;exitY=0.5;exitDx=0;exitDy=0;entryX=0;entryY=0.5;entryDx=0;entryDy=0;" parent="1" source="HKzSkE-kSnUCnQ_LDWvp-56" target="HKzSkE-kSnUCnQ_LDWvp-9" edge="1">
          <mxGeometry relative="1" as="geometry">
            <Array as="points">
              <mxPoint x="560" y="810" />
              <mxPoint x="560" y="365" />
            </Array>
          </mxGeometry>
        </mxCell>
        <mxCell id="HKzSkE-kSnUCnQ_LDWvp-60" value="NO" style="edgeLabel;html=1;align=center;verticalAlign=middle;resizable=0;points=[];" parent="HKzSkE-kSnUCnQ_LDWvp-59" vertex="1" connectable="0">
          <mxGeometry x="-0.4204" y="1" relative="1" as="geometry">
            <mxPoint as="offset" />
          </mxGeometry>
        </mxCell>
        <mxCell id="HKzSkE-kSnUCnQ_LDWvp-63" style="edgeStyle=orthogonalEdgeStyle;rounded=0;orthogonalLoop=1;jettySize=auto;html=1;exitX=0.5;exitY=1;exitDx=0;exitDy=0;entryX=0;entryY=0.5;entryDx=0;entryDy=0;" parent="1" source="HKzSkE-kSnUCnQ_LDWvp-56" target="HKzSkE-kSnUCnQ_LDWvp-62" edge="1">
          <mxGeometry relative="1" as="geometry" />
        </mxCell>
        <mxCell id="HKzSkE-kSnUCnQ_LDWvp-64" value="YES" style="edgeLabel;html=1;align=center;verticalAlign=middle;resizable=0;points=[];" parent="HKzSkE-kSnUCnQ_LDWvp-63" vertex="1" connectable="0">
          <mxGeometry x="-0.2462" y="2" relative="1" as="geometry">
            <mxPoint as="offset" />
          </mxGeometry>
        </mxCell>
        <mxCell id="HKzSkE-kSnUCnQ_LDWvp-56" value="&lt;b&gt;H&lt;/b&gt;&lt;br&gt;-&lt;br&gt;Obstacle?" style="ellipse;whiteSpace=wrap;html=1;" parent="1" vertex="1">
          <mxGeometry x="590" y="770" width="120" height="80" as="geometry" />
        </mxCell>
        <mxCell id="HKzSkE-kSnUCnQ_LDWvp-57" value="" style="ellipse;html=1;shape=startState;fillColor=#000000;strokeColor=#ff0000;" parent="1" vertex="1">
          <mxGeometry x="630" y="680" width="30" height="30" as="geometry" />
        </mxCell>
        <mxCell id="HKzSkE-kSnUCnQ_LDWvp-58" value="" style="edgeStyle=orthogonalEdgeStyle;html=1;verticalAlign=bottom;endArrow=open;endSize=8;strokeColor=#ff0000;rounded=0;" parent="1" source="HKzSkE-kSnUCnQ_LDWvp-57" edge="1">
          <mxGeometry relative="1" as="geometry">
            <mxPoint x="645" y="770" as="targetPoint" />
          </mxGeometry>
        </mxCell>
        <mxCell id="HKzSkE-kSnUCnQ_LDWvp-61" style="edgeStyle=orthogonalEdgeStyle;rounded=0;orthogonalLoop=1;jettySize=auto;html=1;exitX=0.5;exitY=1;exitDx=0;exitDy=0;" parent="1" source="HKzSkE-kSnUCnQ_LDWvp-56" target="HKzSkE-kSnUCnQ_LDWvp-56" edge="1">
          <mxGeometry relative="1" as="geometry" />
        </mxCell>
        <mxCell id="HKzSkE-kSnUCnQ_LDWvp-68" style="edgeStyle=orthogonalEdgeStyle;rounded=0;orthogonalLoop=1;jettySize=auto;html=1;exitX=0.5;exitY=0;exitDx=0;exitDy=0;entryX=0.5;entryY=1;entryDx=0;entryDy=0;" parent="1" source="HKzSkE-kSnUCnQ_LDWvp-62" target="HKzSkE-kSnUCnQ_LDWvp-67" edge="1">
          <mxGeometry relative="1" as="geometry">
            <Array as="points">
              <mxPoint x="770" y="870" />
              <mxPoint x="865" y="870" />
            </Array>
          </mxGeometry>
        </mxCell>
        <mxCell id="HKzSkE-kSnUCnQ_LDWvp-69" value="NO" style="edgeLabel;html=1;align=center;verticalAlign=middle;resizable=0;points=[];" parent="HKzSkE-kSnUCnQ_LDWvp-68" vertex="1" connectable="0">
          <mxGeometry x="0.408" relative="1" as="geometry">
            <mxPoint as="offset" />
          </mxGeometry>
        </mxCell>
        <mxCell id="HKzSkE-kSnUCnQ_LDWvp-62" value="&lt;b&gt;I&lt;/b&gt;&lt;br&gt;Turn Left&lt;br&gt;Obstacle?" style="ellipse;whiteSpace=wrap;html=1;" parent="1" vertex="1">
          <mxGeometry x="710" y="880" width="120" height="80" as="geometry" />
        </mxCell>
        <mxCell id="HKzSkE-kSnUCnQ_LDWvp-65" style="edgeStyle=orthogonalEdgeStyle;rounded=0;orthogonalLoop=1;jettySize=auto;html=1;exitX=1;exitY=1;exitDx=0;exitDy=0;entryX=1;entryY=0.5;entryDx=0;entryDy=0;" parent="1" source="HKzSkE-kSnUCnQ_LDWvp-62" target="HKzSkE-kSnUCnQ_LDWvp-62" edge="1">
          <mxGeometry relative="1" as="geometry">
            <Array as="points">
              <mxPoint x="860" y="948" />
              <mxPoint x="860" y="920" />
            </Array>
          </mxGeometry>
        </mxCell>
        <mxCell id="HKzSkE-kSnUCnQ_LDWvp-66" value="YES" style="edgeLabel;html=1;align=center;verticalAlign=middle;resizable=0;points=[];" parent="HKzSkE-kSnUCnQ_LDWvp-65" vertex="1" connectable="0">
          <mxGeometry x="-0.1958" y="-1" relative="1" as="geometry">
            <mxPoint as="offset" />
          </mxGeometry>
        </mxCell>
        <mxCell id="HKzSkE-kSnUCnQ_LDWvp-70" style="edgeStyle=orthogonalEdgeStyle;rounded=0;orthogonalLoop=1;jettySize=auto;html=1;exitX=0;exitY=0.5;exitDx=0;exitDy=0;entryX=1;entryY=0.5;entryDx=0;entryDy=0;" parent="1" source="HKzSkE-kSnUCnQ_LDWvp-67" target="HKzSkE-kSnUCnQ_LDWvp-56" edge="1">
          <mxGeometry relative="1" as="geometry" />
        </mxCell>
        <mxCell id="HKzSkE-kSnUCnQ_LDWvp-67" value="&lt;b&gt;J&lt;br&gt;&lt;/b&gt;Drive Forward&lt;br&gt;Turn Right&lt;br&gt;-" style="ellipse;whiteSpace=wrap;html=1;" parent="1" vertex="1">
          <mxGeometry x="805" y="770" width="120" height="80" as="geometry" />
        </mxCell>
      </root>
    </mxGraphModel>
  </diagram>
  <diagram id="-WKWoYDC5fWvIdNfQQ88" name="Page-2">
    <mxGraphModel dx="339" dy="390" grid="1" gridSize="10" guides="1" tooltips="1" connect="1" arrows="1" fold="1" page="1" pageScale="1" pageWidth="850" pageHeight="1100" math="0" shadow="0">
      <root>
        <mxCell id="0" />
        <mxCell id="1" parent="0" />
        <mxCell id="8xSj7Ocb5zYP-179F4cI-9" style="edgeStyle=orthogonalEdgeStyle;rounded=0;orthogonalLoop=1;jettySize=auto;html=1;exitX=1;exitY=0;exitDx=0;exitDy=52.5;exitPerimeter=0;entryX=0.5;entryY=0;entryDx=0;entryDy=0;entryPerimeter=0;" edge="1" parent="1" source="8xSj7Ocb5zYP-179F4cI-1" target="8xSj7Ocb5zYP-179F4cI-2">
          <mxGeometry relative="1" as="geometry" />
        </mxCell>
        <mxCell id="8xSj7Ocb5zYP-179F4cI-1" value="Double3 Inc" style="shape=cylinder3;whiteSpace=wrap;html=1;boundedLbl=1;backgroundOutline=1;size=15;" vertex="1" parent="1">
          <mxGeometry x="460" y="310" width="60" height="80" as="geometry" />
        </mxCell>
        <mxCell id="8xSj7Ocb5zYP-179F4cI-2" value="Robot" style="shape=umlActor;verticalLabelPosition=bottom;verticalAlign=top;html=1;outlineConnect=0;" vertex="1" parent="1">
          <mxGeometry x="560" y="420" width="30" height="60" as="geometry" />
        </mxCell>
        <mxCell id="8xSj7Ocb5zYP-179F4cI-8" style="edgeStyle=orthogonalEdgeStyle;rounded=0;orthogonalLoop=1;jettySize=auto;html=1;exitX=1;exitY=0.5;exitDx=0;exitDy=0;entryX=0.5;entryY=1;entryDx=0;entryDy=0;entryPerimeter=0;" edge="1" parent="1" source="8xSj7Ocb5zYP-179F4cI-5" target="8xSj7Ocb5zYP-179F4cI-1">
          <mxGeometry relative="1" as="geometry" />
        </mxCell>
        <mxCell id="8xSj7Ocb5zYP-179F4cI-5" value="Ingenium&lt;br&gt;Passwords&lt;br&gt;Session&lt;br&gt;Payments" style="rounded=1;whiteSpace=wrap;html=1;" vertex="1" parent="1">
          <mxGeometry x="330" y="420" width="120" height="60" as="geometry" />
        </mxCell>
        <mxCell id="8xSj7Ocb5zYP-179F4cI-7" style="edgeStyle=orthogonalEdgeStyle;rounded=0;orthogonalLoop=1;jettySize=auto;html=1;exitX=1;exitY=0.5;exitDx=0;exitDy=0;entryX=0;entryY=0.5;entryDx=0;entryDy=0;" edge="1" parent="1" source="8xSj7Ocb5zYP-179F4cI-6" target="8xSj7Ocb5zYP-179F4cI-5">
          <mxGeometry relative="1" as="geometry" />
        </mxCell>
        <mxCell id="8xSj7Ocb5zYP-179F4cI-6" value="End User" style="rounded=1;whiteSpace=wrap;html=1;" vertex="1" parent="1">
          <mxGeometry x="170" y="420" width="120" height="60" as="geometry" />
        </mxCell>
      </root>
    </mxGraphModel>
  </diagram>
</mxfile>
